<svg width="49" height="41" viewBox="0 0 49 41" fill="none" xmlns="http://www.w3.org/2000/svg">
<path fill-rule="evenodd" clip-rule="evenodd" d="M2 0C0.895431 0 0 0.89543 0 2V30.9962C0 32.1007 0.89543 32.9962 2 32.9962H38.4996L47.3652 40.2643C48.018 40.7994 48.9992 40.3351 48.9992 39.491L48.9996 31.0377C48.9999 31.0239 49 31.01 49 30.9962V2C49 0.895431 48.1046 0 47 0H2Z" fill="#6E6E82"/>
<path fill-rule="evenodd" clip-rule="evenodd" d="M10.0482 14.3477C10.6005 14.3477 11.0482 14.7954 11.0482 15.3477V16.2844C11.0482 17.8054 12.1109 19.5405 14.5974 21.0024C17.0367 22.4365 20.5332 23.3857 24.4992 23.3857C28.4651 23.3857 31.9617 22.4365 34.401 21.0024C36.8875 19.5405 37.9502 17.8054 37.9502 16.2844V15.3477C37.9502 14.7954 38.3979 14.3477 38.9502 14.3477H40.7933C41.3456 14.3477 41.7933 14.7954 41.7933 15.3477V16.2844C41.7933 19.755 39.4147 22.5389 36.3375 24.3482C33.213 26.1852 29.0233 27.2592 24.4992 27.2592C19.9751 27.2592 15.7854 26.1852 12.6609 24.3482C9.58368 22.5389 7.20508 19.755 7.20508 16.2844V15.3477C7.20508 14.7954 7.65279 14.3477 8.20508 14.3477H10.0482Z" fill="#1C1C22"/>
</svg>
