<svg width="128" height="32" viewBox="0 0 128 32" fill="none" xmlns="http://www.w3.org/2000/svg">
<path d="M18.166 10.5527C20.6001 10.5528 22.6852 11.4178 24.4102 13.1426C26.1352 14.8676 27.001 16.9533 27.001 19.3877V29.4707C27.0009 30.1796 26.4257 30.7539 25.7168 30.7539H22.8555C22.1468 30.7537 21.5724 30.1794 21.5723 29.4707V19.3877C21.5722 18.4481 21.2363 17.656 20.5586 17L20.5537 16.9951C19.8978 16.3173 19.1056 15.9815 18.166 15.9814C18.0235 15.9814 17.8965 16.1396 17.9648 16.3262C18.3243 17.3062 18.5049 18.3272 18.5049 19.3877V29.4707C18.5048 30.1796 17.9296 30.7539 17.2207 30.7539H14.3594C13.6507 30.7537 13.0763 30.1794 13.0762 29.4707V19.3877C13.0761 18.448 12.7394 17.656 12.0615 17L12.0596 16.998C11.3796 16.318 10.5747 15.9814 9.63477 15.9814C8.7194 15.9815 7.9261 16.3171 7.24512 16.998L7.24219 17C6.56441 17.656 6.22854 18.4481 6.22852 19.3877V29.4707C6.22839 30.1796 5.65322 30.7539 4.94434 30.7539H2.08398C1.3751 30.7539 0.79993 30.1796 0.799805 29.4707V19.3877C0.799828 16.9533 1.66459 14.8676 3.38965 13.1426L3.39062 13.1416C5.13845 11.4174 7.23558 10.5527 9.66992 10.5527C10.9986 10.5528 12.2582 10.8363 13.4463 11.4023C13.7329 11.5388 14.0676 11.5387 14.3545 11.4023C15.5459 10.836 16.8175 10.5527 18.166 10.5527Z" fill="url(#paint0_linear_9366_32615)" stroke="url(#paint1_linear_9366_32615)" stroke-width="0.4"/>
<path d="M35.5297 11.0957C38.2878 11.0957 40.6402 12.0762 42.5736 14.0332H42.5726C44.5286 15.9893 45.509 18.3516 45.5092 21.1094C45.5092 23.8667 44.5284 26.2173 42.5726 28.1504C40.6392 30.1074 38.2879 31.0889 35.5297 31.0889C32.7719 31.0888 30.4096 30.1083 28.4535 28.1523C26.4969 26.219 25.516 23.8673 25.516 21.1094C25.5161 18.3514 26.4974 15.9893 28.4535 14.0332C30.4096 12.0771 32.7717 11.0958 35.5297 11.0957ZM35.4955 16.5244C34.2559 16.5244 33.1847 16.9758 32.2728 17.8877C31.3862 18.7745 30.9448 19.8445 30.9447 21.1094C30.9447 22.3487 31.3842 23.4195 32.2709 24.3301C33.1823 25.2193 34.2543 25.6611 35.4955 25.6611C36.7606 25.6611 37.8312 25.2189 38.7181 24.332C39.6298 23.4202 40.0814 22.3488 40.0814 21.1094C40.0813 19.846 39.6285 18.7769 38.7191 17.8896L38.7162 17.8857C37.8289 16.9763 36.759 16.5244 35.4955 16.5244Z" fill="url(#paint2_linear_9366_32615)" stroke="url(#paint3_linear_9366_32615)" stroke-width="0.4"/>
<path d="M48.1707 0.799805C48.8797 0.799805 49.4549 1.37502 49.4549 2.08398V10.5566C49.4552 11.2211 50.1977 11.6945 50.8807 11.4648C51.881 11.1285 52.9231 10.9609 54.0057 10.9609H54.0399C56.7977 10.9609 59.1495 11.941 61.0828 13.8975L61.4383 14.2695C63.1577 16.151 64.0193 18.389 64.0193 20.9746C64.0193 23.732 63.0388 26.0825 61.0828 28.0156C59.1494 29.9726 56.798 30.9541 54.0399 30.9541C51.2819 30.954 48.9198 29.9727 46.9637 28.0166V28.0176C45.0069 26.0842 44.0262 23.7326 44.0262 20.9746C44.0262 20.7913 44.0373 20.6003 44.0545 20.4014C44.0378 20.3707 44.0262 20.3362 44.0262 20.2988V2.08398C44.0262 1.37502 44.6014 0.799805 45.3104 0.799805H48.1707ZM54.0057 16.3887C52.7668 16.3887 51.6955 16.8392 50.784 17.75L50.785 17.751C49.8959 18.6624 49.4549 19.7336 49.4549 20.9746C49.4549 22.2141 49.8943 23.2847 50.7811 24.1953L50.9539 24.3564C51.8273 25.1378 52.8419 25.5254 54.0057 25.5254C55.2708 25.5254 56.3414 25.0842 57.2283 24.1973C58.1402 23.2854 58.5916 22.2141 58.5916 20.9746C58.5916 19.7351 58.1402 18.6638 57.2283 17.752L57.2264 17.751C56.3391 16.8415 55.2692 16.3887 54.0057 16.3887Z" fill="url(#paint4_linear_9366_32615)" stroke="url(#paint5_linear_9366_32615)" stroke-width="0.4"/>
<path d="M72.5487 11.0957C75.3068 11.0957 77.6592 12.0762 79.5926 14.0332H79.5916C81.5476 15.9893 82.5281 18.3516 82.5282 21.1094C82.5282 23.8667 81.5474 26.2173 79.5916 28.1504C77.6582 30.1074 75.3069 31.0889 72.5487 31.0889C69.7909 31.0888 67.4286 30.1083 65.4725 28.1523C63.5159 26.219 62.535 23.8673 62.535 21.1094C62.5351 18.3514 63.5164 15.9893 65.4725 14.0332C67.4286 12.0771 69.7907 11.0958 72.5487 11.0957ZM72.5145 16.5244C71.2749 16.5244 70.2037 16.9758 69.2918 17.8877C68.4052 18.7745 67.9638 19.8445 67.9637 21.1094C67.9637 22.3487 68.4032 23.4195 69.2899 24.3301C70.2014 25.2193 71.2733 25.6611 72.5145 25.6611C73.7797 25.6611 74.8502 25.2189 75.7372 24.332C76.6488 23.4202 77.1004 22.3488 77.1004 21.1094C77.1003 19.846 76.6475 18.7769 75.7381 17.8896L75.7352 17.8857C74.8479 16.9763 73.778 16.5244 72.5145 16.5244Z" fill="url(#paint6_linear_9366_32615)" stroke="url(#paint7_linear_9366_32615)" stroke-width="0.4"/>
<path d="M85.8699 1.34277C86.5788 1.34294 87.1531 1.91809 87.1531 2.62695V21.5869C87.1531 22.413 87.4687 23.2992 88.1238 24.248C88.6114 24.9132 89.1584 25.4003 89.7625 25.7178C90.0336 25.8602 90.2456 26.1635 90.3865 26.4639C90.5298 26.7693 90.6209 27.1178 90.6209 27.3955V29.292C90.6209 29.691 90.3779 30.1406 90.0721 30.4727C89.7699 30.8008 89.3423 31.0824 88.9207 31.0439C87.6303 30.9261 86.0478 30.284 85.0193 29.4473L85.0184 29.4463C83.6663 28.3273 82.6984 27.2818 81.9881 25.8623C81.2277 24.4125 81.0438 22.8522 81.0438 21.5869V2.62695C81.0438 1.91799 81.619 1.34277 82.3279 1.34277H85.8699Z" fill="url(#paint8_linear_9366_32615)" stroke="url(#paint9_linear_9366_32615)" stroke-width="0.4"/>
<path d="M98.5574 11.0957C101.315 11.0957 103.667 12.0764 105.6 14.0332H105.599C107.556 15.9665 108.537 18.3174 108.537 21.0752V29.7705C108.537 30.4795 107.962 31.0547 107.253 31.0547H103.76C103.4 31.0544 103.108 30.7621 103.108 30.4023C103.108 30.2167 102.901 30.0767 102.71 30.1631C101.402 30.7571 100.017 31.0547 98.5574 31.0547C95.7993 31.0547 93.4365 30.0734 91.4803 28.1172C89.5468 26.1836 88.578 23.8325 88.5779 21.0752C88.5779 18.3179 89.5468 15.9668 91.4803 14.0332C93.4365 12.077 95.7993 11.0957 98.5574 11.0957ZM98.5574 16.4893C97.2938 16.4893 96.2116 16.9416 95.3006 17.8525C94.4137 18.7395 93.9715 19.81 93.9715 21.0752C93.9715 22.3163 94.4133 23.3874 95.3026 24.2988H95.3016C96.2117 25.1853 97.2936 25.626 98.5574 25.626C99.8226 25.626 100.893 25.1848 101.78 24.2979C102.667 23.4109 103.108 22.3404 103.108 21.0752C103.108 19.8116 102.656 18.7418 101.747 17.8545L101.743 17.8506C100.855 16.9406 99.7966 16.4893 98.5574 16.4893Z" fill="url(#paint10_linear_9366_32615)" stroke="url(#paint11_linear_9366_32615)" stroke-width="0.4"/>
<path d="M112.073 12.4258C114.238 11.1762 116.554 10.7932 119.012 11.2793H119.011C121.442 11.7244 123.428 12.9205 124.959 14.8623L125.005 14.9141C125.061 14.9775 125.11 15.047 125.152 15.1201L126.238 17.001C126.593 17.6149 126.383 18.4004 125.769 18.7549L115.963 24.416C115.68 24.5797 115.545 24.8543 115.55 25.0928C115.555 25.321 115.686 25.5279 115.98 25.5996C116.254 25.6667 116.541 25.7102 116.839 25.7295H116.838C117.733 25.7746 118.582 25.5654 119.391 25.0986C120.088 24.6959 120.631 24.1691 121.025 23.5176C121.351 22.9767 121.985 22.6317 122.629 22.8555C123.252 23.072 124.184 23.3969 125.424 23.8301C126.087 24.0616 126.465 24.8028 126.156 25.4648C125.29 27.3229 123.943 28.7789 122.122 29.8301C119.734 31.2091 117.187 31.5467 114.495 30.8428H114.494C111.822 30.1266 109.786 28.5602 108.396 26.1523C107.005 23.7441 106.667 21.1972 107.383 18.5244V18.5234C108.119 15.8405 109.685 13.8048 112.073 12.4258ZM116.821 16.6914C116.113 16.6646 115.429 16.796 114.805 17.1562C114.164 17.5262 113.699 18.0632 113.368 18.6973C113.189 19.0406 113.212 19.463 113.414 19.7305C113.599 19.9754 113.985 20.1479 114.667 19.9014L117.219 18.4287C117.524 18.1784 117.685 17.9469 117.754 17.749C117.822 17.5535 117.805 17.3814 117.737 17.2354C117.597 16.9317 117.219 16.7064 116.821 16.6914Z" fill="url(#paint12_linear_9366_32615)" stroke="url(#paint13_linear_9366_32615)" stroke-width="0.4"/>
<defs>
<linearGradient id="paint0_linear_9366_32615" x1="1" y1="20.6535" x2="26.8006" y2="20.6535" gradientUnits="userSpaceOnUse">
<stop stop-color="#2FEFDB"/>
<stop offset="1" stop-color="#02C2AE"/>
</linearGradient>
<linearGradient id="paint1_linear_9366_32615" x1="1" y1="20.6535" x2="26.8006" y2="20.6535" gradientUnits="userSpaceOnUse">
<stop stop-color="#2FEFDB"/>
<stop offset="1" stop-color="#02C2AE"/>
</linearGradient>
<linearGradient id="paint2_linear_9366_32615" x1="25.7162" y1="21.0925" x2="45.3094" y2="21.0925" gradientUnits="userSpaceOnUse">
<stop stop-color="#2FEFDB"/>
<stop offset="1" stop-color="#02C2AE"/>
</linearGradient>
<linearGradient id="paint3_linear_9366_32615" x1="25.7162" y1="21.0925" x2="45.3094" y2="21.0925" gradientUnits="userSpaceOnUse">
<stop stop-color="#2FEFDB"/>
<stop offset="1" stop-color="#02C2AE"/>
</linearGradient>
<linearGradient id="paint4_linear_9366_32615" x1="44.2264" y1="15.8769" x2="63.8195" y2="15.8769" gradientUnits="userSpaceOnUse">
<stop stop-color="#2FEFDB"/>
<stop offset="1" stop-color="#02C2AE"/>
</linearGradient>
<linearGradient id="paint5_linear_9366_32615" x1="44.2264" y1="15.8769" x2="63.8195" y2="15.8769" gradientUnits="userSpaceOnUse">
<stop stop-color="#2FEFDB"/>
<stop offset="1" stop-color="#02C2AE"/>
</linearGradient>
<linearGradient id="paint6_linear_9366_32615" x1="62.7352" y1="21.0925" x2="82.3284" y2="21.0925" gradientUnits="userSpaceOnUse">
<stop stop-color="#2FEFDB"/>
<stop offset="1" stop-color="#02C2AE"/>
</linearGradient>
<linearGradient id="paint7_linear_9366_32615" x1="62.7352" y1="21.0925" x2="82.3284" y2="21.0925" gradientUnits="userSpaceOnUse">
<stop stop-color="#2FEFDB"/>
<stop offset="1" stop-color="#02C2AE"/>
</linearGradient>
<linearGradient id="paint8_linear_9366_32615" x1="81.244" y1="16.1954" x2="90.4211" y2="16.1954" gradientUnits="userSpaceOnUse">
<stop stop-color="#2FEFDB"/>
<stop offset="1" stop-color="#02C2AE"/>
</linearGradient>
<linearGradient id="paint9_linear_9366_32615" x1="81.244" y1="16.1954" x2="90.4211" y2="16.1954" gradientUnits="userSpaceOnUse">
<stop stop-color="#2FEFDB"/>
<stop offset="1" stop-color="#02C2AE"/>
</linearGradient>
<linearGradient id="paint10_linear_9366_32615" x1="88.7781" y1="21.0751" x2="108.337" y2="21.0751" gradientUnits="userSpaceOnUse">
<stop stop-color="#2FEFDB"/>
<stop offset="1" stop-color="#02C2AE"/>
</linearGradient>
<linearGradient id="paint11_linear_9366_32615" x1="88.7781" y1="21.0751" x2="108.337" y2="21.0751" gradientUnits="userSpaceOnUse">
<stop stop-color="#2FEFDB"/>
<stop offset="1" stop-color="#02C2AE"/>
</linearGradient>
<linearGradient id="paint12_linear_9366_32615" x1="107.218" y1="21.1375" x2="126.211" y2="21.1375" gradientUnits="userSpaceOnUse">
<stop stop-color="#2FEFDB"/>
<stop offset="1" stop-color="#02C2AE"/>
</linearGradient>
<linearGradient id="paint13_linear_9366_32615" x1="107.218" y1="21.1375" x2="126.211" y2="21.1375" gradientUnits="userSpaceOnUse">
<stop stop-color="#2FEFDB"/>
<stop offset="1" stop-color="#02C2AE"/>
</linearGradient>
</defs>
</svg>
